<?xml version="1.0" encoding="utf-8"?>
<!-- Generator: Adobe Illustrator 24.1.0, SVG Export Plug-In . SVG Version: 6.00 Build 0)  -->
<svg version="1.1" xmlns="http://www.w3.org/2000/svg" xmlns:xlink="http://www.w3.org/1999/xlink" x="0px" y="0px"
	 viewBox="0 0 24 24" style="enable-background:new 0 0 24 24;" xml:space="preserve">
<style type="text/css">
	.st0{fill:none;}
	.st1{fill:none;stroke:#000000;stroke-width:3;stroke-linecap:round;stroke-miterlimit:10;}
</style>
<g id="Good_Grades">
</g>
<g id="School_Bus">
</g>
<g id="Bell_02">
</g>
<g id="Notes">
</g>
<g id="Achievement">
</g>
<g id="Competition_Podium">
</g>
<g id="Audio_Book">
</g>
<g id="Interactive_Book">
</g>
<g id="Institution">
</g>
<g id="Square_Ruler_and_Pencil">
</g>
<g id="Flute">
</g>
<g id="Trophy">
</g>
<g id="Study_Lamp">
</g>
<g id="Notebooks">
</g>
<g id="Calculator">
</g>
<g id="Bag">
</g>
<g id="Paint_Palette">
</g>
<g id="Drama_Club">
</g>
<g id="Pencil_and_Ruler">
</g>
<g id="Flask">
</g>
<g id="Document">
</g>
<g id="Check_List">
</g>
<g id="Paper_Clip">
</g>
<g id="Geometry_Set">
</g>
<g id="Board">
</g>
<g id="Books">
</g>
<g id="Teacher">
</g>
<g id="Abacus">
</g>
<g id="Compass">
</g>
<g id="Diploma_03">
</g>
<g id="Diploma_02">
</g>
<g id="Education_Utensils">
</g>
<g id="Graduate_Man">
</g>
<g id="Graduate_Woman">
</g>
<g id="Alphabet">
</g>
<g id="Mortar_Board">
</g>
<g id="Globe">
</g>
<g id="Telescope">
</g>
<g id="Pencil">
	<path d="M18.7,21.62H7.39l2.29-1.08c0.82-0.39,1.49-0.98,1.94-1.73c0.01-0.02,0.03-0.05,0.04-0.07l5.3-9.18l0,0l0,0
		c0.09,0.05,0.19,0.08,0.29,0.08c0.2,0,0.39-0.1,0.5-0.29l0.58-1c0.16-0.28,0.06-0.63-0.21-0.79l0,0l0.3-0.51
		C18.88,6.24,19,5.3,18.76,4.4c-0.24-0.9-0.82-1.65-1.62-2.12s-1.75-0.59-2.65-0.35c-0.9,0.24-1.65,0.82-2.12,1.62l-0.3,0.51l0,0
		c-0.13-0.08-0.29-0.1-0.44-0.06c-0.15,0.04-0.27,0.14-0.35,0.27l-0.58,1c-0.08,0.13-0.1,0.29-0.06,0.44
		c0.04,0.15,0.14,0.27,0.27,0.35l0,0l-5.3,9.18c-0.01,0.02-0.02,0.04-0.04,0.07c-0.42,0.77-0.6,1.65-0.53,2.55l0.3,3.72
		c0.03,0.21,0.16,0.4,0.34,0.5c0.09,0.05,0.18,0.08,0.28,0.09c0.02,0,0.03,0.01,0.05,0.01H18.7c0.16,0,0.28-0.13,0.28-0.28
		S18.86,21.62,18.7,21.62z M5.73,19.18c0.82,0.42,1.63,0.89,2.47,1.43l-2.1,1c-0.05,0.02-0.1,0-0.12-0.01
		c-0.02-0.01-0.06-0.04-0.06-0.08L5.73,19.18z M11.36,18.13l-0.23-0.33c-0.05-0.07-0.11-0.13-0.17-0.19l4.99-8.64l0.52,0.3
		L11.36,18.13z M6.95,15.29c-0.08-0.03-0.17-0.05-0.26-0.06L6.3,15.2l5.11-8.85l0.52,0.3L6.95,15.29z M12.42,6.94l1.52,0.88
		l1.52,0.88l-5.02,8.7c-0.02,0-0.04,0-0.07,0l-0.38,0c-0.11,0-0.22-0.05-0.29-0.14l-0.46-0.6c-0.15-0.2-0.38-0.33-0.62-0.36
		L7.88,16.2c-0.11-0.01-0.21-0.08-0.27-0.18l-0.2-0.33c-0.01-0.01-0.02-0.03-0.03-0.04L12.42,6.94z M12.86,3.84
		c0.39-0.68,1.02-1.16,1.78-1.36c0.75-0.2,1.54-0.1,2.22,0.29c0.68,0.39,1.16,1.02,1.36,1.78c0.2,0.75,0.1,1.54-0.29,2.22l-0.3,0.51
		L16.1,6.4l-3.53-2.04L12.86,3.84z M11.77,4.57c0-0.01,0.01-0.01,0.02-0.01l6.05,3.49c0.01,0,0.01,0.01,0.01,0.02l-0.58,1
		c0,0.01-0.01,0.01-0.02,0.01L11.2,5.59c-0.01,0-0.01-0.01-0.01-0.02L11.77,4.57z M6.01,15.74c0.02,0.01,0.04,0.01,0.07,0.01
		l0.57,0.04c0.12,0.01,0.23,0.08,0.29,0.18l0.2,0.33c0.14,0.25,0.4,0.42,0.68,0.45l0.74,0.09c0.1,0.01,0.19,0.06,0.25,0.14l0.46,0.6
		c0.17,0.23,0.45,0.36,0.74,0.36l0.38,0c0.12,0,0.23,0.06,0.3,0.16L11,18.6c0.01,0.02,0.03,0.04,0.05,0.05
		c-0.39,0.58-0.95,1.06-1.61,1.37l-0.64,0.3c-1.06-0.7-2.09-1.29-3.12-1.8l-0.06-0.71C5.56,17.09,5.7,16.37,6.01,15.74z"/>
	<rect class="st0" width="24" height="24"/>
</g>
<g id="Open_Book">
</g>
<g id="Backpack">
</g>
<g id="Bell_01">
</g>
<g id="Diploma_01">
</g>
<g id="School_Building_02">
</g>
<g id="Atom">
</g>
<g id="School_Building_01">
</g>
<g id="Writing">
</g>
<g id="Notebook">
</g>
<g id="No_Sound">
</g>
<g id="Apple">
</g>
</svg>
